<svg width="512" height="512" viewBox="0 0 512 512" fill="none" xmlns="http://www.w3.org/2000/svg">
<path d="M189.529 295H148.238C160.733 319.383 181.264 338.996 206.313 350.322C204.965 347.547 203.704 344.731 202.532 341.878C196.881 328.154 192.499 312.251 189.529 295ZM148.238 185H189.529C192.499 167.749 196.88 151.846 202.531 138.122C203.704 135.269 204.964 132.453 206.312 129.678C181.264 141.004 160.733 160.617 148.238 185ZM230.272 330.455C237.913 349.011 248.011 361 256 361C263.989 361 274.087 349.011 281.727 330.455C286.019 320.032 289.469 308.05 291.997 295H220.001C222.531 308.05 225.981 320.032 230.272 330.455ZM185 240C185 231.538 185.322 223.188 185.919 215H137.603C135.901 223.07 135 231.432 135 240C135 248.568 135.901 256.93 137.603 265H185.919C185.31 256.681 185.003 248.342 185 240ZM281.727 149.545C274.087 130.989 263.989 119 256 119C248.011 119 237.913 130.989 230.272 149.545C225.98 159.968 222.53 171.95 220.002 185H291.998C289.469 171.95 286.019 159.968 281.727 149.545ZM215.981 215C215.334 223.135 215 231.496 215 240C215 248.504 215.334 256.865 215.981 265H296.019C296.666 256.865 297 248.504 297 240C297 231.496 296.666 223.135 296.019 215H215.981ZM305.687 129.678C307.034 132.453 308.295 135.269 309.468 138.122C315.119 151.846 319.501 167.749 322.47 185H363.761C351.267 160.617 330.736 141.004 305.687 129.678Z" fill="#AEB0B8"/>
<path d="M433 25H79C35.439 25 0 60.439 0 104V376C0 419.56 35.439 455 79 455H217.787L245.394 482.606C248.322 485.535 252.161 487 256 487C259.839 487 263.678 485.535 266.606 482.606L294.213 455H433C476.56 455 512 419.56 512 376V104C512 60.439 476.56 25 433 25ZM256 391C172.738 391 105 323.262 105 240C105 156.738 172.738 89 256 89C339.262 89 407 156.738 407 240C407 323.262 339.262 391 256 391Z" fill="#AEB0B8"/>
<path d="M309.468 341.878C308.295 344.731 307.035 347.547 305.687 350.322C330.736 338.996 351.266 319.383 363.762 295H322.471C319.501 312.251 315.119 328.154 309.468 341.878ZM327 240C327 248.462 326.678 256.812 326.081 265H374.397C376.099 256.93 377 248.568 377 240C377 231.432 376.099 223.07 374.397 215H326.081C326.678 223.188 327 231.538 327 240Z" fill="#AEB0B8"/>
</svg>
