<svg width="512" height="512" viewBox="0 0 512 512" fill="none" xmlns="http://www.w3.org/2000/svg">
<g clip-path="url(#clip0_107615_7)">
<path d="M252.351 246.632C286.233 246.632 315.573 234.479 339.546 210.502C363.519 186.53 375.671 157.198 375.671 123.313C375.671 89.4367 363.519 60.1018 339.542 36.1209C315.565 12.152 286.229 0 252.351 0C218.464 0 189.132 12.152 165.16 36.1249C141.188 60.0978 129.031 89.4337 129.031 123.313C129.031 157.198 141.187 186.534 165.164 210.507C189.141 234.476 218.476 246.632 252.351 246.632ZM468.127 393.701C467.435 383.725 466.037 372.842 463.978 361.351C461.9 349.772 459.225 338.827 456.021 328.823C452.713 318.483 448.214 308.273 442.652 298.487C436.878 288.331 430.097 279.487 422.487 272.21C414.53 264.597 404.788 258.476 393.522 254.01C382.296 249.57 369.854 247.32 356.546 247.32C351.319 247.32 346.265 249.464 336.503 255.82C329.564 260.339 322.604 264.825 315.624 269.28C308.917 273.554 299.831 277.558 288.608 281.183C277.659 284.726 266.542 286.523 255.569 286.523C244.597 286.523 233.483 284.726 222.522 281.183C211.312 277.561 202.226 273.558 195.526 269.284C187.757 264.319 180.727 259.788 174.629 255.815C164.879 249.46 159.82 247.315 154.594 247.315C141.281 247.315 128.844 249.569 117.621 254.015C106.363 258.472 96.6169 264.593 88.6519 272.214C81.0469 279.495 74.262 288.334 68.496 298.487C62.938 308.272 58.438 318.479 55.125 328.827C51.9251 338.831 49.2501 349.772 47.1721 361.351C45.1131 372.827 43.7151 383.713 43.0231 393.713C42.3347 403.777 41.9935 413.861 42.0001 423.947C42.0001 450.674 50.4961 472.31 67.25 488.267C83.7969 504.014 105.691 512.002 132.316 512.002H378.847C405.472 512.002 427.358 504.018 443.909 488.268C460.666 472.322 469.162 450.682 469.162 423.943C469.158 413.627 468.811 403.451 468.127 393.701Z" fill="#AEB0B8"/>
</g>
<defs>
<clipPath id="clip0_107615_7">
<rect width="512" height="512" fill="white"/>
</clipPath>
</defs>
</svg>
