<svg width="512" height="512" viewBox="0 0 512 512" fill="none" xmlns="http://www.w3.org/2000/svg">
<path d="M288.862 354.944C279.749 360.533 268.078 363.612 256 363.612C243.922 363.612 232.251 360.534 223.138 354.944L74.3623 263.699C74.3623 263.699 60.9338 255.468 60.9338 274.114V365.229C60.9338 413.227 148.267 464.971 255.996 464.971C363.726 464.971 451.058 413.228 451.058 365.229V268.977C451.058 254.01 441.512 261.323 441.512 261.323L288.862 354.944Z" fill="#AEB0B8"/>
<path d="M503.426 191.119C514.858 184.108 514.858 172.635 503.426 165.623L276.784 52.2883C265.353 45.2776 246.646 45.2776 235.214 52.2883L8.57376 165.623C-2.85792 172.634 -2.85792 184.107 8.57376 191.119L235.214 330.12C246.646 337.131 265.353 337.131 276.784 330.12M494.053 397.151V243.635C494.053 243.635 494.159 236.364 489.845 238.765C486.384 240.691 477.9 245.42 474.911 248.02C471.46 251.02 472.238 257.752 472.238 257.752V397.151C472.238 399.13 470.538 400.074 469.727 400.551C461.892 405.157 456.624 413.659 456.624 423.406C456.624 438.053 468.497 449.928 483.146 449.928C497.794 449.928 509.667 438.053 509.667 423.406C509.667 413.622 504.36 405.093 496.476 400.499C495.692 400.042 494.053 399.128 494.053 397.151Z" fill="#AEB0B8"/>
</svg>
