<svg width="512" height="512" viewBox="0 0 512 512" fill="none" xmlns="http://www.w3.org/2000/svg">
<path d="M195 241C203.27 241 210 247.73 210 256C210 264.27 203.27 271 195 271C186.73 271 180 264.27 180 256C180 247.73 186.73 241 195 241Z" fill="#AEB0B8"/>
<path d="M210 182.5V213.58C205.185 211.868 200.111 210.995 195 211C170.19 211 150 231.19 150 256C150 280.81 170.19 301 195 301C200.26 301 205.31 300.09 210 298.42V329.5C205.09 330.5 200.07 331 195 331C153.65 331 120 297.35 120 256C120 214.65 153.65 181 195 181C200.07 181 205.09 181.5 210 182.5Z" fill="#AEB0B8"/>
<path d="M90 256C90 313.9 137.1 361 195 361C200.05 361 205.06 360.65 210 359.93V451H165C156.72 451 150 444.28 150 436V414.76C137.73 411.27 125.9 406.33 114.63 400L99.54 415.1C93.68 420.96 84.19 420.96 78.33 415.1L35.9 372.67C30.038 366.808 30.061 357.299 35.9 351.46L51 336.36C44.7041 325.196 39.7497 313.327 36.24 301H15C6.72 301 0 294.28 0 286V226C0 217.72 6.72 211 15 211H36.24C39.73 198.73 44.66 186.9 51 175.63L35.9 160.54C30.061 154.701 30.038 145.192 35.9 139.33L78.33 96.9C84.19 91.04 93.68 91.04 99.54 96.9L114.64 112C125.804 105.704 137.673 100.75 150 97.24V76C150 67.72 156.72 61 165 61H210V152.07C205.06 151.35 200.05 151 195 151C137.1 151 90 198.1 90 256ZM422 69.78V151H503.22L422 69.78ZM285 151H347C355.28 151 362 157.72 362 166C362 174.28 355.28 181 347 181H285C276.72 181 270 174.28 270 166C270 157.72 276.72 151 285 151ZM437 361H285C276.72 361 270 354.28 270 346C270 337.72 276.72 331 285 331H437C445.28 331 452 337.72 452 346C452 354.28 445.28 361 437 361ZM437 301H285C276.72 301 270 294.28 270 286C270 277.72 276.72 271 285 271H437C445.28 271 452 277.72 452 286C452 294.28 445.28 301 437 301ZM437 241H285C276.72 241 270 234.28 270 226C270 217.72 276.72 211 285 211H437C445.28 211 452 217.72 452 226C452 234.28 445.28 241 437 241ZM407 181C398.72 181 392 174.28 392 166V61H240V451H497C505.28 451 512 444.28 512 436V181H407Z" fill="#AEB0B8"/>
</svg>
