<svg width="512" height="512" viewBox="0 0 512 512" fill="none" xmlns="http://www.w3.org/2000/svg">
<path d="M512 121V46C512 21.187 491.813 1 467 1H45C20.187 1 0 21.187 0 46V121H512ZM346 61H436C444.284 61 451 67.716 451 76C451 84.284 444.284 91 436 91H346C337.716 91 331 84.284 331 76C331 67.716 337.716 61 346 61ZM196 61C204.284 61 211 67.716 211 76C211 84.284 204.284 91 196 91C187.716 91 181 84.284 181 76C181 67.716 187.716 61 196 61ZM136 61C144.284 61 151 67.716 151 76C151 84.284 144.284 91 136 91C127.716 91 121 84.284 121 76C121 67.716 127.716 61 136 61ZM76 61C84.284 61 91 67.716 91 76C91 84.284 84.284 91 76 91C67.716 91 61 84.284 61 76C61 67.716 67.716 61 76 61ZM0 151V466C0 490.813 20.187 511 45 511H467C491.813 511 512 490.813 512 466V151H0ZM175.37 364.287C181.84 369.462 182.888 378.901 177.713 385.37C172.539 391.838 163.098 392.888 156.63 387.712L81.63 327.712C74.131 321.715 74.126 310.288 81.63 304.286L156.63 244.286C163.096 239.111 172.537 240.159 177.713 246.628C182.888 253.097 181.84 262.537 175.37 267.711L115.012 316L175.37 364.287ZM314.787 216.909L224.787 426.909C221.524 434.522 212.708 438.052 205.091 434.787C197.477 431.524 193.949 422.705 197.213 415.091L287.213 205.091C290.477 197.477 299.295 193.95 306.909 197.213C314.523 200.476 318.051 209.294 314.787 216.909ZM430.37 327.713L355.37 387.713C348.912 392.881 339.47 391.849 334.287 385.371C329.112 378.902 330.16 369.462 336.63 364.288L396.988 316L336.63 267.713C330.16 262.538 329.112 253.099 334.287 246.63C339.461 240.161 348.901 239.112 355.37 244.288L430.37 304.288C437.869 310.285 437.874 321.711 430.37 327.713Z" fill="#AEB0B8"/>
</svg>
