<svg width="512" height="512" viewBox="0 0 512 512" fill="none" xmlns="http://www.w3.org/2000/svg">
<path d="M196.601 148H250.683C260.191 128.267 245.799 105 223.635 105C201.513 105 187.054 128.23 196.601 148Z" fill="#AEB0B8"/>
<path d="M223.635 75C261.849 75 290.51 110.449 282.217 148H358.635V115C358.635 109.477 354.158 105 348.635 105H328.452C326.173 97.0305 322.986 89.3489 318.955 82.106L333.236 67.825C337.141 63.92 337.141 57.588 333.236 53.683L304.952 25.399C301.047 21.494 294.715 21.494 290.81 25.399L276.529 39.68C269.286 35.6485 261.605 32.4617 253.635 30.182V10C253.635 4.477 249.158 0 243.635 0H203.635C198.112 0 193.635 4.477 193.635 10V30.183C185.665 32.4622 177.984 35.6491 170.741 39.681L156.46 25.399C152.555 21.494 146.223 21.494 142.318 25.399L114.034 53.683C110.129 57.588 110.129 63.92 114.034 67.825L128.316 82.106C124.285 89.3489 121.098 97.0305 118.819 105H98.635C93.112 105 88.635 109.477 88.635 115V148H165.087C156.747 110.351 185.502 75 223.635 75ZM474.026 317.66L415.156 229.63C414.153 211.82 410.576 194.54 404.487 178H46.422C12.642 269.708 58.832 375.467 155.455 409.75V497C155.455 505.28 162.165 512 170.455 512H341.455C349.735 512 356.455 505.28 356.455 497V420H400.455C408.735 420 415.455 413.28 415.455 405V341H461.555C473.516 341 480.686 327.62 474.026 317.66Z" fill="#AEB0B8"/>
</svg>
